<svg width="34" height="40" viewBox="0 0 34 40" fill="none" xmlns="http://www.w3.org/2000/svg">
  <path
    d="M20.6331 0C21.4528 0.00105839 22.2387 0.327162 22.8183 0.906796C23.3979 1.48643 23.724 2.27227 23.7251 3.092V10.662C28.9551 10.948 33.1181 15.027 33.1181 20C33.1181 24.973 28.9561 29.052 23.7251 29.338V36.908C23.7243 37.7278 23.3983 38.5138 22.8186 39.0935C22.2389 39.6732 21.4529 39.9992 20.6331 40H3.0991C2.2793 39.9992 1.4933 39.6732 0.913607 39.0935C0.333916 38.5138 0.00789722 37.7278 0.00710297 36.908V29.668C0.00710297 29.5123 0.0689475 29.363 0.179031 29.2529C0.289115 29.1428 0.438421 29.081 0.594103 29.081C0.749785 29.081 0.89909 29.1428 1.00917 29.2529C1.11926 29.363 1.1811 29.5123 1.1811 29.668V33.19H22.5511V29.338C21.5658 29.2857 20.5929 29.0944 19.6611 28.77L15.2781 31.161C14.8121 31.415 14.2651 30.941 14.4451 30.445L15.7531 26.849H9.0481C8.89254 26.8484 8.74346 26.7866 8.6331 26.677L3.9361 21.981C3.82656 21.8706 3.76479 21.7215 3.7641 21.566V8.728C3.7641 8.404 4.0271 8.141 4.3511 8.141H19.3811C19.7051 8.141 19.9681 8.404 19.9681 8.728V11.13C20.7871 10.872 21.6531 10.711 22.5511 10.662V6.184H1.1801V26.888C1.1801 26.9651 1.16492 27.0414 1.13542 27.1126C1.10592 27.1839 1.06268 27.2486 1.00817 27.3031C0.953667 27.3576 0.888956 27.4008 0.817738 27.4303C0.746519 27.4598 0.670189 27.475 0.593103 27.475C0.516017 27.475 0.439685 27.4598 0.368467 27.4303C0.297249 27.4008 0.23254 27.3576 0.178032 27.3031C0.123524 27.2486 0.0802846 27.1839 0.0507851 27.1126C0.0212856 27.0414 0.00610351 26.9651 0.00610352 26.888V3.092C0.00716243 2.2721 0.333403 1.4861 0.913252 0.906443C1.4931 0.326781 2.27921 0.000793791 3.0991 0H20.6331ZM22.5511 34.364H1.1801V36.908C1.18063 37.4165 1.38288 37.9041 1.74246 38.2636C2.10204 38.6232 2.58958 38.8255 3.0981 38.826H20.6321C21.1406 38.8255 21.6282 38.6232 21.9877 38.2636C22.3473 37.9041 22.5496 37.4165 22.5501 36.908V34.364H22.5511ZM13.1181 35.069C13.4431 35.069 13.7051 35.331 13.7051 35.656V37.534C13.7051 37.6111 13.6899 37.6874 13.6604 37.7586C13.6309 37.8299 13.5877 37.8946 13.5332 37.9491C13.4787 38.0036 13.414 38.0468 13.3427 38.0763C13.2715 38.1058 13.1952 38.121 13.1181 38.121H10.6131C10.536 38.121 10.4597 38.1058 10.3885 38.0763C10.3173 38.0468 10.2525 38.0036 10.198 37.9491C10.1435 37.8946 10.1003 37.8299 10.0708 37.7586C10.0413 37.6874 10.0261 37.6111 10.0261 37.534V35.656C10.0261 35.331 10.2891 35.069 10.6131 35.069H13.1181ZM12.5311 36.243H11.2011V36.947H12.5311V36.243ZM23.1381 11.82C18.2821 11.82 14.3321 15.49 14.3321 20C14.3321 22.217 15.2721 24.293 16.9791 25.846C17.1561 26.006 17.2181 26.256 17.1361 26.481L16.0801 29.386L19.3311 27.613C19.4055 27.5723 19.4878 27.5482 19.5724 27.5423C19.657 27.5364 19.7418 27.5489 19.8211 27.579C20.8812 27.9788 22.0051 28.1824 23.1381 28.18C27.9941 28.18 31.9441 24.51 31.9441 20C31.9441 15.49 27.9941 11.82 23.1381 11.82ZM23.1381 13.15C23.4621 13.15 23.7251 13.414 23.7251 13.738V15.029H23.7651C24.4187 15.0301 25.0452 15.2902 25.5073 15.7525C25.9694 16.2148 26.2293 16.8414 26.2301 17.495V18.121C26.2301 18.2767 26.1683 18.426 26.0582 18.5361C25.9481 18.6462 25.7988 18.708 25.6431 18.708C25.4874 18.708 25.3381 18.6462 25.228 18.5361C25.1179 18.426 25.0561 18.2767 25.0561 18.121V17.495C25.0561 16.783 24.4761 16.204 23.7641 16.204H22.8241C21.9401 16.204 21.2201 16.924 21.2201 17.808C21.2201 18.693 21.9401 19.413 22.8251 19.413H23.4511C24.1879 19.4138 24.8943 19.7068 25.4153 20.2278C25.9363 20.7488 26.2293 21.4552 26.2301 22.192C26.2301 23.632 25.1301 24.819 23.7251 24.957V26.262C23.7251 26.4177 23.6633 26.567 23.5532 26.6771C23.4431 26.7872 23.2938 26.849 23.1381 26.849C22.9824 26.849 22.8331 26.7872 22.723 26.6771C22.6129 26.567 22.5511 26.4177 22.5511 26.262V24.971H22.5111C21.8575 24.9699 21.231 24.7098 20.7689 24.2475C20.3068 23.7852 20.0469 23.1586 20.0461 22.505C20.0461 22.3493 20.1079 22.2 20.218 22.0899C20.3281 21.9798 20.4774 21.918 20.6331 21.918C20.7888 21.918 20.9381 21.9798 21.0482 22.0899C21.1583 22.2 21.2201 22.3493 21.2201 22.505C21.2201 23.217 21.8001 23.796 22.5121 23.796H23.4511C24.3361 23.796 25.0561 23.076 25.0561 22.192C25.0561 21.307 24.3361 20.587 23.4511 20.587H22.8251C22.0881 20.5865 21.3815 20.2935 20.8603 19.7725C20.3391 19.2515 20.0459 18.545 20.0451 17.808C20.0451 16.368 21.1471 15.181 22.5511 15.043V13.738C22.5511 13.414 22.8141 13.151 23.1381 13.151V13.15ZM18.7931 9.315H4.9381V20.978H9.0481C9.3721 20.978 9.6351 21.241 9.6351 21.566V25.676H15.2021C13.8751 24.054 13.1581 22.083 13.1581 20C13.1581 18.888 13.3661 17.82 13.7481 16.83H7.4821C7.32642 16.83 7.17712 16.7682 7.06703 16.6581C6.95695 16.548 6.8951 16.3987 6.8951 16.243C6.8951 16.0873 6.95695 15.938 7.06703 15.8279C7.17712 15.7178 7.32642 15.656 7.4821 15.656H14.3021C14.7011 14.945 15.1951 14.287 15.7681 13.699H13.7451C13.5894 13.699 13.4401 13.6372 13.33 13.5271C13.2199 13.417 13.1581 13.2677 13.1581 13.112C13.1581 12.9563 13.2199 12.807 13.33 12.6969C13.4401 12.5868 13.5894 12.525 13.7451 12.525H16.8751C16.9511 12.525 17.0231 12.539 17.0891 12.565C17.6191 12.185 18.1891 11.855 18.7931 11.58V9.315ZM8.4611 22.153H5.7691L8.4611 24.845V22.153ZM11.8661 18.787C12.0218 18.787 12.1711 18.8488 12.2812 18.9589C12.3913 19.069 12.4531 19.2183 12.4531 19.374C12.4531 19.5297 12.3913 19.679 12.2812 19.7891C12.1711 19.8992 12.0218 19.961 11.8661 19.961H7.4821C7.32642 19.961 7.17712 19.8992 7.06703 19.7891C6.95695 19.679 6.8951 19.5297 6.8951 19.374C6.8951 19.2183 6.95695 19.069 7.06703 18.9589C7.17712 18.8488 7.32642 18.787 7.4821 18.787H11.8661ZM11.2401 12.524C11.3959 12.524 11.5454 12.5859 11.6555 12.6961C11.7657 12.8063 11.8276 12.9557 11.8276 13.1115C11.8276 13.2673 11.7657 13.4167 11.6555 13.5269C11.5454 13.6371 11.3959 13.699 11.2401 13.699H7.4821C7.32629 13.699 7.17685 13.6371 7.06668 13.5269C6.9565 13.4167 6.8946 13.2673 6.8946 13.1115C6.8946 12.9557 6.9565 12.8063 7.06668 12.6961C7.17685 12.5859 7.32629 12.524 7.4821 12.524H11.2401ZM20.6331 1.174H3.0991C2.59058 1.17453 2.10304 1.37677 1.74346 1.73635C1.38388 2.09593 1.18163 2.58348 1.1811 3.092V5.01H22.5511V3.092C22.5506 2.58348 22.3483 2.09593 21.9888 1.73635C21.6292 1.37677 21.1416 1.17453 20.6331 1.174ZM13.1181 2.504C13.2739 2.504 13.4233 2.5659 13.5335 2.67607C13.6437 2.78625 13.7056 2.93568 13.7056 3.0915C13.7056 3.24731 13.6437 3.39675 13.5335 3.50693C13.4233 3.6171 13.2739 3.679 13.1181 3.679H10.6131C10.4574 3.679 10.3081 3.61716 10.198 3.50707C10.0879 3.39699 10.0261 3.24768 10.0261 3.092C10.0261 2.93632 10.0879 2.78701 10.198 2.67693C10.3081 2.56684 10.4574 2.505 10.6131 2.505L13.1181 2.504Z"
    fill="white" />
</svg>