<svg width="40" height="40" viewBox="0 0 40 40" fill="none" xmlns="http://www.w3.org/2000/svg">
  <path
    d="M10.118 12.339C10.1366 12.2639 10.17 12.1933 10.2161 12.1312C10.2622 12.069 10.3201 12.0166 10.3865 11.977C10.453 11.9374 10.5266 11.9113 10.6032 11.9003C10.6798 11.8893 10.7578 11.8935 10.8327 11.9128C10.9076 11.9321 10.978 11.966 11.0397 12.0126C11.1015 12.0592 11.1534 12.1176 11.1925 12.1843C11.2315 12.2511 11.257 12.325 11.2674 12.4016C11.2778 12.4783 11.2729 12.5563 11.253 12.631C11.213 12.787 11.193 12.948 11.193 13.111V26.89C11.193 27.948 12.053 28.809 13.111 28.809H26.89C27.053 28.809 27.214 28.789 27.37 28.749C27.4456 28.7262 27.5251 28.7188 27.6036 28.7275C27.6821 28.7361 27.7581 28.7605 27.8269 28.7993C27.8958 28.838 27.9561 28.8903 28.0042 28.9529C28.0523 29.0156 28.0873 29.0873 28.107 29.1638C28.1267 29.2403 28.1307 29.32 28.1189 29.3981C28.107 29.4762 28.0794 29.5511 28.0378 29.6183C27.9963 29.6855 27.9415 29.7436 27.877 29.7891C27.8124 29.8346 27.7392 29.8665 27.662 29.883C27.4098 29.948 27.1504 29.9809 26.89 29.981H25.597V31.748C25.597 32.093 25.731 32.418 25.976 32.662L29.831 36.517C30.1756 36.3463 30.565 36.2879 30.9446 36.35C31.3241 36.412 31.6747 36.5914 31.947 36.863C32.2914 37.208 32.4848 37.6755 32.4848 38.163C32.4848 38.6505 32.2914 39.118 31.947 39.463C31.589 39.821 31.118 40 30.647 40C30.177 40 29.706 39.82 29.347 39.462C29.0756 39.1896 28.8963 38.839 28.8345 38.4595C28.7726 38.0799 28.8312 37.6905 29.002 37.346L25.147 33.491C24.9173 33.2627 24.7353 32.9911 24.6113 32.6919C24.4874 32.3927 24.4241 32.0719 24.425 31.748V29.98H23.092V32.525C23.092 32.6804 23.0302 32.8295 22.9203 32.9394C22.8105 33.0493 22.6614 33.111 22.506 33.111C22.3506 33.111 22.2015 33.0493 22.0916 32.9394C21.9817 32.8295 21.92 32.6804 21.92 32.525V29.98H20.587V39.414C20.587 39.5694 20.5252 39.7185 20.4153 39.8284C20.3055 39.9383 20.1564 40 20.001 40C19.8456 40 19.6965 39.9383 19.5866 39.8284C19.4767 39.7185 19.415 39.5694 19.415 39.414V29.98H18.082V32.525C18.082 32.6804 18.0202 32.8295 17.9103 32.9394C17.8005 33.0493 17.6514 33.111 17.496 33.111C17.3406 33.111 17.1915 33.0493 17.0816 32.9394C16.9717 32.8295 16.91 32.6804 16.91 32.525V29.98H15.577V35.167C15.9417 35.29 16.2588 35.5241 16.4835 35.8366C16.7083 36.1491 16.8294 36.5241 16.83 36.909C16.8295 37.3965 16.6355 37.8638 16.2907 38.2085C15.9459 38.5531 15.4785 38.7468 14.991 38.747C14.5037 38.7465 14.0365 38.5527 13.6919 38.2081C13.3473 37.8635 13.1535 37.3963 13.153 36.909C13.153 36.1 13.678 35.412 14.405 35.167V29.98H13.112C12.2926 29.979 11.5071 29.6529 10.9278 29.0735C10.3486 28.494 10.0228 27.7084 10.022 26.889V25.596H8.25398C7.90898 25.596 7.58398 25.73 7.33998 25.975L3.48598 29.828C3.61098 30.079 3.67798 30.358 3.67798 30.646C3.67798 31.138 3.48698 31.599 3.13998 31.946C2.96969 32.1173 2.7671 32.2532 2.54396 32.3457C2.32082 32.4382 2.08154 32.4856 1.83998 32.485C1.34798 32.485 0.886983 32.294 0.539983 31.946C0.36866 31.7757 0.232807 31.5731 0.140289 31.35C0.04777 31.1269 0.000421063 30.8876 0.00098148 30.646C0.00098148 30.156 0.191982 29.694 0.538982 29.346C0.709361 29.1749 0.911978 29.0392 1.13512 28.9469C1.35826 28.8545 1.59749 28.8073 1.83898 28.808C2.12898 28.808 2.40598 28.875 2.65798 29L6.51098 25.146C6.73931 24.9164 7.01094 24.7343 7.31013 24.6104C7.60933 24.4864 7.93014 24.4231 8.25398 24.424H10.021V23.091H7.47598C7.32056 23.091 7.17151 23.0293 7.06162 22.9194C6.95172 22.8095 6.88998 22.6604 6.88998 22.505C6.88998 22.3496 6.95172 22.2006 7.06162 22.0907C7.17151 21.9808 7.32056 21.919 7.47598 21.919H10.021V20.586H0.586982C0.431565 20.586 0.282514 20.5243 0.172618 20.4144C0.0627217 20.3045 0.00098148 20.1554 0.00098148 20C0.00098148 19.8446 0.0627217 19.6956 0.172618 19.5857C0.282514 19.4758 0.431565 19.414 0.586982 19.414H10.021V18.081H7.47598C7.32056 18.081 7.17151 18.0193 7.06162 17.9094C6.95172 17.7995 6.88998 17.6504 6.88998 17.495C6.88998 17.3396 6.95172 17.1906 7.06162 17.0807C7.17151 16.9708 7.32056 16.909 7.47598 16.909H10.021V15.576H4.83398C4.71088 15.9406 4.47664 16.2574 4.16418 16.482C3.85173 16.7065 3.47676 16.8276 3.09198 16.828C2.60468 16.8275 2.13748 16.6337 1.7929 16.2891C1.44833 15.9445 1.25451 15.4773 1.25398 14.99C1.25425 14.5025 1.44795 14.0351 1.79255 13.6903C2.13716 13.3455 2.6045 13.1516 3.09198 13.151C3.90098 13.151 4.58898 13.677 4.83398 14.404H10.021V13.111C10.021 12.85 10.054 12.59 10.119 12.339H10.118ZM30.646 37.495C30.5139 37.4945 30.3847 37.5333 30.2747 37.6066C30.1648 37.6798 30.0792 37.7841 30.0288 37.9062C29.9784 38.0282 29.9654 38.1626 29.9916 38.292C30.0179 38.4215 30.082 38.5402 30.176 38.633C30.2535 38.7108 30.3491 38.7682 30.4542 38.8002C30.5592 38.8321 30.6706 38.8376 30.7783 38.8162C30.886 38.7948 30.9868 38.7471 31.0716 38.6774C31.1565 38.6077 31.2228 38.5181 31.2647 38.4166C31.3067 38.3151 31.3229 38.2048 31.3119 38.0956C31.301 37.9863 31.2632 37.8814 31.202 37.7902C31.1408 37.699 31.058 37.6244 30.961 37.5729C30.864 37.5214 30.7558 37.4946 30.646 37.495ZM14.99 36.243C14.9024 36.2432 14.8157 36.2605 14.7348 36.2942C14.6539 36.3278 14.5805 36.3771 14.5186 36.4391C14.4568 36.5011 14.4078 36.5747 14.3744 36.6557C14.341 36.7367 14.3238 36.8234 14.324 36.911C14.3241 36.9986 14.3415 37.0853 14.3751 37.1662C14.4088 37.2471 14.458 37.3205 14.52 37.3824C14.5821 37.4442 14.6557 37.4932 14.7367 37.5266C14.8176 37.56 14.9044 37.5772 14.992 37.577C15.1689 37.5768 15.3384 37.5062 15.4633 37.381C15.5882 37.2557 15.6582 37.0859 15.658 36.909C15.6577 36.7321 15.5872 36.5626 15.4619 36.4377C15.3366 36.3128 15.1669 36.2428 14.99 36.243ZM1.83798 29.98C1.75065 29.9799 1.66416 29.9971 1.5835 30.0306C1.50283 30.064 1.42959 30.1131 1.36798 30.175C1.30578 30.2367 1.25643 30.31 1.22279 30.3909C1.18914 30.4717 1.17188 30.5585 1.17198 30.646C1.17132 30.7338 1.18811 30.8208 1.2214 30.9021C1.25468 30.9833 1.30379 31.0571 1.36586 31.1191C1.42793 31.1812 1.50172 31.2303 1.58295 31.2636C1.66417 31.2969 1.75121 31.3137 1.83898 31.313C1.92676 31.3137 2.01379 31.2969 2.09502 31.2636C2.17624 31.2303 2.25004 31.1812 2.31211 31.1191C2.37418 31.0571 2.42328 30.9833 2.45657 30.9021C2.48985 30.8208 2.50665 30.7338 2.50598 30.646C2.50596 30.5586 2.48862 30.4721 2.45498 30.3914C2.42134 30.3108 2.37206 30.2375 2.30998 30.176C2.24822 30.1137 2.17469 30.0643 2.09366 30.0306C2.01263 29.997 1.92572 29.9798 1.83798 29.98ZM20 2.38419e-05C20.324 2.38419e-05 20.586 0.262024 20.586 0.586024V10.02H21.919V7.47502C21.919 7.31961 21.9807 7.17055 22.0906 7.06066C22.2005 6.95076 22.3496 6.88902 22.505 6.88902C22.6604 6.88902 22.8095 6.95076 22.9193 7.06066C23.0292 7.17055 23.091 7.31961 23.091 7.47502V10.02H24.424V4.83302C24.0594 4.70992 23.7426 4.47568 23.518 4.16323C23.2935 3.85077 23.1725 3.47581 23.172 3.09102C23.1725 2.60372 23.3663 2.13652 23.7109 1.79195C24.0555 1.44737 24.5227 1.25355 25.01 1.25302C25.4975 1.25329 25.9649 1.44699 26.3097 1.79159C26.6545 2.1362 26.8485 2.60354 26.849 3.09102C26.849 3.90002 26.323 4.58802 25.596 4.83302V10.02H26.889C27.7083 10.0211 28.4938 10.3471 29.0731 10.9266C29.6524 11.5061 29.9782 12.2917 29.979 13.111V14.404H31.747C32.092 14.404 32.417 14.269 32.661 14.025L36.515 10.172C36.3884 9.91794 36.3227 9.63789 36.323 9.35402C36.323 8.86202 36.514 8.40102 36.862 8.05402C37.0323 7.8827 37.2349 7.74685 37.458 7.65433C37.6811 7.56181 37.9204 7.51446 38.162 7.51502C38.652 7.51502 39.114 7.70602 39.462 8.05402C39.809 8.40102 40 8.86302 40 9.35402C40 9.84402 39.809 10.306 39.462 10.654C39.2916 10.8252 39.089 10.9608 38.8658 11.0532C38.6427 11.1455 38.4035 11.1927 38.162 11.192C37.8778 11.1925 37.5974 11.1268 37.343 11L33.49 14.854C33.2617 15.0837 32.99 15.2657 32.6908 15.3897C32.3916 15.5136 32.0708 15.577 31.747 15.576H29.98V16.909H32.525C32.6804 16.909 32.8294 16.9708 32.9393 17.0807C33.0492 17.1906 33.111 17.3396 33.111 17.495C33.111 17.6504 33.0492 17.7995 32.9393 17.9094C32.8294 18.0193 32.6804 18.081 32.525 18.081H29.98V19.414H39.414C39.4909 19.414 39.5671 19.4292 39.6382 19.4586C39.7093 19.4881 39.7739 19.5312 39.8283 19.5857C39.8828 19.6401 39.9259 19.7047 39.9554 19.7758C39.9848 19.8469 40 19.9231 40 20C40 20.077 39.9848 20.1532 39.9554 20.2243C39.9259 20.2954 39.8828 20.36 39.8283 20.4144C39.7739 20.4688 39.7093 20.512 39.6382 20.5414C39.5671 20.5709 39.4909 20.586 39.414 20.586H29.98V21.919H32.525C32.6804 21.919 32.8294 21.9808 32.9393 22.0907C33.0492 22.2006 33.111 22.3496 33.111 22.505C33.111 22.6604 33.0492 22.8095 32.9393 22.9194C32.8294 23.0293 32.6804 23.091 32.525 23.091H29.98V24.424H35.167C35.2901 24.0595 35.5243 23.7426 35.8368 23.5181C36.1492 23.2935 36.5242 23.1725 36.909 23.172C37.3963 23.1726 37.8635 23.3664 38.2081 23.7109C38.5526 24.0555 38.7465 24.5227 38.747 25.01C38.7465 25.4973 38.5526 25.9645 38.2081 26.3091C37.8635 26.6537 37.3963 26.8475 36.909 26.848C36.5242 26.8476 36.1492 26.7265 35.8368 26.502C35.5243 26.2774 35.2901 25.9606 35.167 25.596H29.98V26.889C29.9801 27.1491 29.9475 27.4081 29.883 27.66C29.8653 27.736 29.8326 27.8078 29.7868 27.871C29.741 27.9342 29.683 27.9876 29.6163 28.0281C29.5496 28.0686 29.4754 28.0953 29.3982 28.1068C29.321 28.1182 29.2423 28.1142 29.1667 28.0948C29.0911 28.0754 29.0201 28.0411 28.958 27.9939C28.8958 27.9467 28.8437 27.8876 28.8047 27.82C28.7657 27.7524 28.7406 27.6777 28.7308 27.6002C28.7211 27.5228 28.7269 27.4442 28.748 27.369C28.788 27.213 28.808 27.052 28.808 26.889V13.11C28.808 12.052 27.947 11.191 26.888 11.191H13.112C12.949 11.191 12.788 11.211 12.632 11.251C12.5564 11.2739 12.4769 11.2812 12.3984 11.2726C12.3198 11.2639 12.2439 11.2395 12.175 11.2008C12.1062 11.162 12.0459 11.1097 11.9977 11.0471C11.9496 10.9845 11.9146 10.9127 11.8949 10.8362C11.8752 10.7597 11.8712 10.68 11.8831 10.6019C11.895 10.5238 11.9226 10.4489 11.9641 10.3817C12.0057 10.3146 12.0604 10.2565 12.125 10.211C12.1896 10.1655 12.2627 10.1335 12.34 10.117C12.591 10.052 12.85 10.019 13.112 10.019H14.405V8.25202C14.405 7.90702 14.271 7.58202 14.026 7.33802L10.171 3.48302C9.82642 3.65369 9.43708 3.7122 9.05758 3.65032C8.67808 3.58845 8.32748 3.4093 8.05498 3.13802C7.71057 2.79305 7.51713 2.32549 7.51713 1.83802C7.51713 1.35055 7.71057 0.883003 8.05498 0.538024C8.39996 0.193615 8.86751 0.00017643 9.35498 0.00017643C9.84245 0.00017643 10.31 0.193615 10.655 0.538024C10.9264 0.810444 11.1056 1.16105 11.1675 1.54059C11.2294 1.92012 11.1708 2.3095 11 2.65402L14.855 6.50902C15.321 6.97502 15.577 7.59402 15.577 8.25202V10.019H16.91V7.47402C16.91 7.31861 16.9717 7.16956 17.0816 7.05966C17.1915 6.94976 17.3406 6.88802 17.496 6.88802C17.6514 6.88802 17.8005 6.94976 17.9103 7.05966C18.0202 7.16956 18.082 7.31861 18.082 7.47402V10.019H19.415V0.585023C19.415 0.261023 19.677 -0.000976562 20.001 -0.000976562L20 2.38419e-05ZM21.761 13.151C23.056 13.151 24.109 14.117 24.109 15.303C24.1085 15.4621 24.089 15.6206 24.051 15.775C25.306 16.12 26.222 17.181 26.222 18.435C26.222 19.137 25.922 19.807 25.407 20.313C25.923 20.82 26.222 21.49 26.222 22.192C26.222 23.147 25.678 24.032 24.808 24.536C24.721 25.824 23.546 26.849 22.114 26.849C21.7153 26.8529 21.3204 26.7715 20.9558 26.6102C20.5912 26.449 20.2653 26.2116 20 25.914C19.7346 26.2116 19.4087 26.449 19.0441 26.6102C18.6795 26.7715 18.2846 26.8529 17.886 26.849C16.398 26.849 15.186 25.743 15.186 24.384C14.31 23.805 13.778 22.875 13.778 21.879C13.778 21.224 14.004 20.609 14.395 20.102C13.9976 19.637 13.7788 19.0457 13.778 18.434C13.778 17.181 14.694 16.12 15.949 15.774C15.9111 15.6202 15.8916 15.4624 15.891 15.304C15.891 14.117 16.944 13.151 18.239 13.151C18.939 13.151 19.569 13.435 20 13.883C20.2292 13.6489 20.5033 13.4634 20.8059 13.3376C21.1085 13.2118 21.4333 13.1484 21.761 13.151ZM21.761 14.323C21.113 14.323 20.586 14.763 20.586 15.303C20.586 15.4584 20.5242 15.6075 20.4143 15.7174C20.3045 15.8273 20.1554 15.889 20 15.889C19.8446 15.889 19.6955 15.8273 19.5856 15.7174C19.4757 15.6075 19.414 15.4584 19.414 15.303C19.414 14.763 18.887 14.323 18.239 14.323C17.59 14.323 17.063 14.763 17.063 15.303C17.0655 15.51 17.1418 15.7092 17.278 15.865V15.866L17.307 15.903L17.315 15.913L17.328 15.935C17.383 16.0237 17.4134 16.1255 17.4159 16.2298C17.4184 16.3341 17.3931 16.4373 17.3424 16.5285C17.2917 16.6198 17.2176 16.6958 17.1277 16.7488C17.0378 16.8018 16.9354 16.8299 16.831 16.83L16.815 16.829C15.785 16.835 14.95 17.553 14.949 18.434C14.949 18.753 15.061 19.059 15.269 19.32C15.601 19.1164 15.9642 18.9684 16.344 18.882C16.4939 18.8514 16.6498 18.8805 16.7785 18.9633C16.9072 19.0461 16.9984 19.176 17.0326 19.3251C17.0668 19.4742 17.0413 19.6308 16.9616 19.7614C16.8819 19.892 16.7543 19.9863 16.606 20.024C15.631 20.248 14.949 21.011 14.949 21.879C14.949 22.36 15.165 22.821 15.535 23.171C15.635 23.008 15.757 22.856 15.897 22.716C15.9511 22.6597 16.0159 22.6147 16.0876 22.5838C16.1593 22.5529 16.2365 22.5366 16.3146 22.5359C16.3927 22.5352 16.4702 22.5502 16.5424 22.5799C16.6146 22.6096 16.6802 22.6534 16.7353 22.7088C16.7903 22.7642 16.8338 22.83 16.863 22.9024C16.8923 22.9749 16.9068 23.0524 16.9056 23.1305C16.9045 23.2086 16.8877 23.2857 16.8564 23.3572C16.825 23.4287 16.7796 23.4933 16.723 23.547C16.488 23.781 16.358 24.078 16.358 24.384C16.358 25.097 17.044 25.677 17.886 25.677C18.729 25.677 19.414 25.097 19.414 24.384V23.13C19.414 22.593 19.013 22.105 18.415 21.918C18.2693 21.8694 18.1486 21.7655 18.0788 21.6287C18.009 21.4919 17.9956 21.3332 18.0416 21.1867C18.0876 21.0402 18.1893 20.9176 18.3247 20.8453C18.4602 20.773 18.6187 20.7567 18.766 20.8C19 20.873 19.216 20.975 19.414 21.1V17.846C19.414 17.6906 19.4757 17.5416 19.5856 17.4317C19.6955 17.3218 19.8446 17.26 20 17.26C20.1554 17.26 20.3045 17.3218 20.4143 17.4317C20.5242 17.5416 20.586 17.6906 20.586 17.846V18.595C21.02 18.321 21.546 18.161 22.113 18.161C22.2684 18.161 22.4174 18.2228 22.5273 18.3327C22.6372 18.4426 22.699 18.5916 22.699 18.747C22.699 18.9024 22.6372 19.0515 22.5273 19.1614C22.4174 19.2713 22.2684 19.333 22.113 19.333C21.271 19.333 20.586 19.913 20.586 20.625V24.383C20.586 25.096 21.271 25.676 22.113 25.676C22.956 25.676 23.641 25.096 23.641 24.383C23.641 23.845 23.24 23.358 22.642 23.17C22.4937 23.1233 22.3701 23.0197 22.2983 22.8818C22.2264 22.744 22.2123 22.5833 22.259 22.435C22.3057 22.2868 22.4093 22.1631 22.5472 22.0913C22.685 22.0195 22.8457 22.0053 22.994 22.052C23.6491 22.2493 24.2015 22.6941 24.534 23.292C24.858 22.998 25.05 22.604 25.05 22.191C25.05 21.637 24.713 21.128 24.149 20.831C24.0545 20.7813 23.9755 20.7067 23.9203 20.6153C23.8652 20.524 23.836 20.4193 23.836 20.3125C23.836 20.2058 23.8652 20.1011 23.9203 20.0097C23.9755 19.9183 24.0545 19.8438 24.149 19.794C24.713 19.496 25.05 18.987 25.05 18.434C25.05 17.552 24.215 16.834 23.185 16.828H23.161C22.8798 16.8278 22.6014 16.8835 22.342 16.992C22.2709 17.0229 22.1944 17.0393 22.1169 17.0404C22.0395 17.0415 21.9625 17.0272 21.8906 16.9984C21.8187 16.9696 21.7532 16.9267 21.6979 16.8724C21.6427 16.8181 21.5987 16.7534 21.5686 16.682C21.5386 16.6106 21.5229 16.5339 21.5227 16.4564C21.5224 16.3789 21.5375 16.3022 21.5671 16.2306C21.5967 16.159 21.6403 16.0939 21.6952 16.0393C21.7501 15.9846 21.8153 15.9413 21.887 15.912C22.193 15.782 22.515 15.702 22.849 15.671C22.9066 15.5565 22.9367 15.4302 22.937 15.302C22.937 14.762 22.409 14.322 21.761 14.322V14.323ZM36.909 24.343C36.8213 24.3431 36.7345 24.3604 36.6536 24.394C36.5726 24.4276 36.4991 24.4769 36.4371 24.5389C36.3752 24.6009 36.3261 24.6745 36.2926 24.7555C36.2591 24.8366 36.2419 24.9234 36.242 25.011C36.242 25.0987 36.2594 25.1855 36.293 25.2664C36.3266 25.3474 36.3758 25.4209 36.4378 25.4829C36.4999 25.5448 36.5735 25.5939 36.6545 25.6274C36.7355 25.6609 36.8223 25.6781 36.91 25.678C37.0869 25.678 37.2565 25.6077 37.3816 25.4827C37.5067 25.3576 37.577 25.1879 37.577 25.011C37.577 24.8341 37.5067 24.6645 37.3816 24.5394C37.2565 24.4143 37.0869 24.344 36.91 24.344L36.909 24.343ZM3.09098 14.323C3.00332 14.3231 2.91654 14.3404 2.83558 14.374C2.75462 14.4076 2.68107 14.4569 2.61913 14.5189C2.5572 14.5809 2.50809 14.6545 2.4746 14.7355C2.44112 14.8166 2.42392 14.9034 2.42398 14.991C2.42405 15.0787 2.44138 15.1655 2.47498 15.2464C2.50859 15.3274 2.55781 15.4009 2.61984 15.4629C2.68187 15.5248 2.75549 15.5739 2.8365 15.6074C2.91751 15.6409 3.00432 15.6581 3.09198 15.658C3.26901 15.6579 3.43874 15.5874 3.56383 15.4622C3.68892 15.3369 3.75912 15.1671 3.75898 14.99C3.75885 14.813 3.6884 14.6433 3.56312 14.5182C3.43785 14.3931 3.26801 14.3229 3.09098 14.323ZM38.161 8.68702C38.0737 8.68692 37.9872 8.7041 37.9065 8.73756C37.8258 8.77103 37.7526 8.82013 37.691 8.88202C37.6287 8.94378 37.5792 9.01732 37.5456 9.09835C37.5119 9.17938 37.4947 9.26629 37.495 9.35402C37.4943 9.4418 37.5111 9.52883 37.5444 9.61006C37.5777 9.69128 37.6268 9.76508 37.6889 9.82715C37.7509 9.88922 37.8247 9.93832 37.9059 9.97161C37.9872 10.0049 38.0742 10.0217 38.162 10.021C38.34 10.021 38.507 9.95103 38.632 9.82502C38.6942 9.76338 38.7435 9.69001 38.7772 9.60916C38.8108 9.52831 38.8281 9.44159 38.828 9.35402C38.8284 9.26636 38.8113 9.17949 38.7778 9.09846C38.7444 9.01744 38.6951 8.94387 38.633 8.88202C38.5713 8.82001 38.4978 8.77084 38.417 8.73737C38.3362 8.7039 38.2495 8.68679 38.162 8.68702H38.161ZM25.011 2.42402C24.834 2.42402 24.6642 2.49435 24.539 2.61953C24.4138 2.74471 24.3435 2.91449 24.3435 3.09152C24.3435 3.26856 24.4138 3.43834 24.539 3.56352C24.6642 3.6887 24.834 3.75902 25.011 3.75902C25.188 3.75902 25.3578 3.6887 25.483 3.56352C25.6082 3.43834 25.6785 3.26856 25.6785 3.09152C25.6785 2.91449 25.6082 2.74471 25.483 2.61953C25.3578 2.49435 25.188 2.42402 25.011 2.42402ZM9.35398 1.17202C9.26428 1.16869 9.17483 1.18349 9.09098 1.21554C9.00714 1.2476 8.93063 1.29625 8.86603 1.35858C8.80144 1.42091 8.75009 1.49564 8.71506 1.57828C8.68003 1.66093 8.66205 1.7498 8.66218 1.83956C8.66232 1.92933 8.68057 2.01814 8.71584 2.10068C8.75112 2.18322 8.80269 2.2578 8.86747 2.31993C8.93226 2.38207 9.00891 2.43049 9.09285 2.46229C9.17679 2.4941 9.26629 2.50863 9.35598 2.50502C9.52828 2.49809 9.69119 2.42471 9.81055 2.30027C9.92991 2.17583 9.99644 2.00999 9.99618 1.83756C9.99592 1.66513 9.92889 1.4995 9.80916 1.37541C9.68943 1.25133 9.52629 1.17844 9.35398 1.17202Z"
    fill="white" />
</svg>